PathFileType	4	(X/Y/Z)	Walk1_0-155.trc
DataRate	CameraRate	NumFrames	NumMarkers	Units	OrigDataRate	OrigDataStartFrame	OrigNumFrames
30	30	6	22	m	30	77	155
Frame#	Time	Hip			RHip			RKnee			RAnkle			RBigToe			RSmallToe			RHeel			LHip			LKnee			LAnkle			LBigToe			LSmallToe			LHeel			Neck			Head			Nose			RShoulder			RElbow			RWrist			LShoulder			LElbow			LWrist		
		X1	Y1	Z1	X2	Y2	Z2	X3	Y3	Z3	X4	Y4	Z4	X5	Y5	Z5	X6	Y6	Z6	X7	Y7	Z7	X8	Y8	Z8	X9	Y9	Z9	X10	Y10	Z10	X11	Y11	Z11	X12	Y12	Z12	X13	Y13	Z13	X14	Y14	Z14	X15	Y15	Z15	X16	Y16	Z16	X17	Y17	Z17	X18	Y18	Z18	X19	Y19	Z19	X20	Y20	Z20	X21	Y21	Z21	X22	Y22	Z22
78	2.6	-0.6693436824882524	0.8874661349150814	0.3621056415654974	-0.6623289022484	0.8619235586796791	0.46839880157793157	-0.6084518422361122	0.5025132977692588	0.42350891956230824	-0.6458530699827918	0.10838190418370056	0.37515725027312247	-0.4394023649346815	0.03233233503869882	0.374963664647528	-0.47900096790077235	0.018282001763550146	0.42303384672702904	-0.6947682303630691	0.028705535774212747	0.36687390263707903	-0.6705593890889731	0.867107833710502	0.2523641075422	-0.5619344886033285	0.5210265905367653	0.23122862089615415	-0.8666935022222431	0.2577917010346571	0.27622010871534486	-0.8183096112313255	0.03910888900731197	0.2700821475914057	-0.8594314598382743	0.08033328796965966	0.2214688405029351	-0.9513691442445421	0.23523738939738595	0.2824344419612364	-0.717196008679689	1.5703749614324536	0.35094046062448314	-0.6791457343173007	1.8183914585806005	0.36758363928225574	-0.5426352359043569	1.6766944438708693	0.36120026635935515	-0.7436262174756221	1.440600560042952	0.5422873715255426	-0.656549545024393	1.1320045098448086	0.6043052666228229	-0.5774482434481275	0.8897260409010989	0.6324713108628357	-0.7486578226390772	1.4564523566788614	0.15460057351185064	-0.7244753982227322	1.1396453157917428	0.12374524285076695	-0.6850472578966323	0.8903720090789121	0.09566337865073983
79	2.6333333333333333	-0.633206786377005	0.8947507893466643	0.36369647226835866	-0.6305603654638849	0.8706728410916815	0.46932194999966637	-0.6014235683135437	0.5040128498494987	0.42393313460361104	-0.6416170734760669	0.11078567487449884	0.375255272997946	-0.4397724093624175	0.028737886593486493	0.3770983564721846	-0.4806757350179609	0.0168189701223581	0.42318237416036264	-0.6930527335846887	0.03077820386954476	0.3690414402023908	-0.6314026581834444	0.8773708011490486	0.2512868401589386	-0.48335025398054016	0.538712896219082	0.23958587480257076	-0.7651443641228917	0.24899730677323745	0.2739324122475158	-0.6786600757720779	0.03921442282987762	0.2758782273043316	-0.7251702977072891	0.07701224003026096	0.22151624152354962	-0.8432967473089913	0.21598619992505438	0.2821797815067791	-0.6772088936709806	1.577841213741909	0.3519250038433384	-0.6348607243034591	1.8253213712489655	0.3680627412737119	-0.49430528212348457	1.6780311424029353	0.35373187831717634	-0.7065817304047721	1.4515511459522907	0.5377690793700912	-0.5977520281165587	1.1434428429425478	0.6068297235230411	-0.4981081674157835	0.9061083611963745	0.6340183571816707	-0.7088465352874419	1.4637493648800466	0.1574032607524003	-0.6985166136363901	1.1476389671319631	0.1224984066490475	-0.6705163026400827	0.8943011039692903	0.09906020761280154
80	2.6666666666666665	-0.5979309949909197	0.9008197114133032	0.3649835149474304	-0.6002137408305718	0.8774461772524522	0.4702386172312431	-0.5933942999198438	0.5059110452260349	0.42419379864191026	-0.6375374408196253	0.1119432674962762	0.37413085970766463	-0.4397733871999504	0.0254052162934188	0.37972539356800716	-0.4831158022376051	0.016368389925144416	0.42513209369258637	-0.6920456808488558	0.03220399847518616	0.36816294129034965	-0.5922086580019622	0.8859741913153424	0.24994247337031764	-0.41164857136727057	0.5543887373933094	0.2490584062539796	-0.6588823660876534	0.233716231312667	0.27080931584880424	-0.5286400012080612	0.04123009421497969	0.2803767879957048	-0.5807430925733312	0.07397255387163625	0.2206601937855909	-0.7284973845911832	0.19002018039170032	0.28059609813240294	-0.6367269005328706	1.5837609120444938	0.35268146149451746	-0.5899516107042403	1.8306141061440133	0.3673330612220858	-0.4435885357853355	1.6772752961753592	0.34454010078988384	-0.6689856792021357	1.460641419873777	0.5339591395477854	-0.5433417443452631	1.1543447277713619	0.6077682382578133	-0.42199973881106323	0.9230473324414952	0.6331797131898623	-0.6699486571634551	1.469595820089993	0.1589084445309701	-0.6736578038762607	1.154385741349917	0.12165576642806593	-0.6530738687034524	0.8979292666554858	0.10146959593035847
81	2.7	-0.5627037984985531	0.9046266578538258	0.3658219740540242	-0.5700691615121922	0.8810685536114558	0.47102749743563777	-0.5834290336885704	0.5072144353578895	0.42433085318818936	-0.6345138794511614	0.1116370836637669	0.37196819191927705	-0.4405839242926971	0.022810342540344065	0.38387002220246635	-0.4861731973034077	0.01662611359225703	0.42859192606049457	-0.6927258640519274	0.03222263775282549	0.3641790392034085	-0.5522572265367999	0.8912745664414681	0.24872575585418114	-0.3491811677811739	0.5646658508410498	0.25691778095558165	-0.5472513650510715	0.2134900349602698	0.26744646283328055	-0.377972169160732	0.04901414700862818	0.28023478024430626	-0.43287966347872503	0.0744446783992208	0.2182410225093498	-0.6071148062208704	0.160170224656539	0.2778992507936533	-0.5957572186959141	1.5872811099891824	0.3534024186238751	-0.5452718077866915	1.8335311769842633	0.3656761292985728	-0.39291100424291864	1.6748883583776142	0.3359225872016927	-0.6298621518357203	1.466606890323698	0.5316120134866956	-0.4925766861868442	1.1628740291460724	0.6080049757053667	-0.34950957996900833	0.9392878339559675	0.6300858172504693	-0.63243896909954	1.4732754457762458	0.15880213706473764	-0.6492530013798959	1.1591916129865665	0.1216177120177963	-0.6325152573688269	0.900539729526254	0.1024759640148456
82	2.7333333333333334	-0.5269127250221718	0.9055832742164165	0.36613097942331785	-0.5390293686883334	0.8810943522852943	0.4715483935282425	-0.5712141394027717	0.5072027029074404	0.4244037929328614	-0.6326981662295198	0.11062931450235915	0.3692941249952738	-0.4426182929568595	0.021112576764836216	0.3901431336538363	-0.4892305043152093	0.01712305621423284	0.4331430827684626	-0.6952049944015979	0.031173007231753917	0.35849889591765793	-0.5114131525254144	0.892289159687062	0.24805246030378536	-0.2966532384506143	0.5675617828270839	0.26192864179927444	-0.43054204769305776	0.19065893580665805	0.2650716416897025	-0.23287467518703836	0.06362117276092309	0.2753957073067887	-0.28619489303179746	0.0792165581236972	0.21548391035883707	-0.48021909596176005	0.12946491119482595	0.2747627439665129	-0.5543205701276545	1.587967063861773	0.35413344169898453	-0.5019197011719224	1.8337312002915402	0.3636520792475574	-0.34476328002259504	1.6713946529662997	0.33000690192917437	-0.5889738468776966	1.4690344784697866	0.5305184946665029	-0.44448021238555163	1.1679887659159938	0.6079271607138955	-0.28079719777913786	0.9538957054332735	0.6252219369974141	-0.5954523097690497	1.4741141786776406	0.15753883367573776	-0.6235667764745115	1.1612938526560346	0.12221996444677853	-0.6088163330476336	0.9016615388575341	0.10195464199506056
83	2.7666666666666666	-0.49001729912851966	0.9036050634324991	0.3659482077924874	-0.5060689622237731	0.8776022902621503	0.47164806511263907	-0.556476815979306	0.5057140512183045	0.4245025244012474	-0.6317963441047599	0.11002365429292811	0.3667495074712697	-0.4450592256353846	0.019799638331598462	0.39795793175742605	-0.4914623125524477	0.017336055931472395	0.4382706190743965	-0.6989760856336314	0.030396277257534805	0.3531057563285637	-0.46980329447865476	0.8888056667861617	0.24805353373750846	-0.25232470312882344	0.5631378794772753	0.26474532399333894	-0.3117109228873559	0.16841893903404223	0.2648409957259063	-0.09735984675113511	0.08311885612002448	0.2684795766385282	-0.14561426459260035	0.08754977326614347	0.2136046149581454	-0.3514166865173668	0.10145168350946925	0.271966011498265	-0.5124507966539629	1.5858213990285666	0.35475816148718575	-0.4605949315610658	1.8312311613308674	0.36178706377610437	-0.30045669668253994	1.6671135813845415	0.3277494416263045	-0.5465779609893514	1.4680358836312135	0.5301300368679295	-0.3981623584269999	1.1694184051164296	0.6075372875498778	-0.21619306479864578	0.9661362954604438	0.6191861390160592	-0.557534604764805	1.4717291750450743	0.15586452182791175	-0.5945962614674363	1.1599395825303314	0.12335422288277287	-0.5819533440604856	0.9009975186539793	0.10013855522131838
